<?xml version="1.0" encoding="UTF-8"?>
<svg id="_레이어_2" data-name="레이어 2" xmlns="http://www.w3.org/2000/svg" viewBox="0 0 777.17 45.67">
  <defs>
    <style>
      .cls-1 {
        fill: #4c4948;
      }

      .cls-1, .cls-2, .cls-3, .cls-4, .cls-5 {
        stroke-width: 0px;
      }

      .cls-2 {
        fill: #727171;
      }

      .cls-3 {
        fill: #2ea7e0;
      }

      .cls-4 {
        fill: #8ec43e;
      }

      .cls-5 {
        fill: #f39939;
      }
    </style>
  </defs>
  <g id="_레이어_1-2" data-name="레이어 1">
    <g>
      <g>
        <path class="cls-2" d="m29.09,41.67c-.15,0-.3,0-.44,0-.14,0-.28-.01-.39-.03v3.67h-1.64v-9.39h2.57c.44,0,.81.02,1.13.06.32.04.61.1.86.18.61.2,1.07.51,1.4.93.33.43.49.98.49,1.65,0,.45-.08.86-.26,1.22-.18.37-.44.67-.78.92-.34.25-.75.45-1.25.58-.49.13-1.06.2-1.69.2Zm-.83-1.48c.09,0,.2.02.35.03.14,0,.29,0,.45,0,.44,0,.81-.03,1.11-.11.3-.07.53-.18.72-.31.19-.14.31-.3.4-.49.08-.19.12-.39.12-.62,0-.28-.06-.51-.18-.72-.11-.2-.33-.36-.62-.47-.16-.05-.35-.1-.58-.12-.22-.03-.51-.04-.84-.04h-.91v2.83Z"/>
        <path class="cls-2" d="m47.03,42.92h-3.36l-.87,2.39h-1.75l3.55-9.39h1.49l3.54,9.39h-1.74l-.87-2.39Zm-1.69-4.74c-.31.98-.58,1.8-.83,2.46l-.31.84h2.31l-.3-.84c-.25-.67-.52-1.49-.84-2.46h-.03Z"/>
        <path class="cls-2" d="m63.46,42.61c0-.24-.06-.43-.16-.58-.12-.15-.27-.27-.46-.36-.19-.09-.4-.17-.64-.23-.24-.06-.49-.12-.75-.17-.34-.08-.67-.17-.99-.28-.32-.11-.6-.26-.84-.46-.24-.19-.42-.44-.57-.74-.14-.3-.21-.68-.21-1.12,0-.49.08-.93.24-1.29.16-.37.39-.67.67-.92.28-.24.61-.42.99-.54.38-.12.81-.18,1.29-.18s.94.05,1.42.15c.49.09.89.22,1.24.38v1.47c-.46-.19-.9-.33-1.33-.42-.43-.08-.83-.12-1.2-.12-.54,0-.94.1-1.24.3-.28.21-.43.51-.43.92,0,.24.05.44.15.59.09.15.22.28.39.38.16.1.34.18.56.24.22.06.44.12.68.17.37.09.74.18,1.08.29.34.11.65.26.91.46.27.19.48.45.63.77.16.31.23.72.23,1.21s-.08.95-.26,1.31c-.17.37-.43.67-.76.92-.32.24-.71.42-1.18.54-.46.11-.98.17-1.53.17-.48,0-.96-.05-1.43-.15-.47-.1-.86-.24-1.17-.42v-1.46c.44.2.87.35,1.28.44.42.09.85.14,1.29.14.26,0,.52-.02.76-.07.26-.04.47-.12.67-.22.19-.11.36-.26.47-.44.13-.19.18-.42.18-.69Z"/>
        <path class="cls-2" d="m79.52,42.61c0-.24-.06-.43-.17-.58-.12-.15-.27-.27-.45-.36-.2-.09-.41-.17-.64-.23-.24-.06-.49-.12-.75-.17-.35-.08-.68-.17-1-.28-.31-.11-.59-.26-.82-.46-.25-.19-.44-.44-.58-.74-.14-.3-.21-.68-.21-1.12,0-.49.08-.93.24-1.29.17-.37.39-.67.67-.92.28-.24.61-.42,1-.54.37-.12.81-.18,1.28-.18s.96.05,1.43.15c.49.09.89.22,1.24.38v1.47c-.46-.19-.9-.33-1.33-.42-.42-.08-.82-.12-1.19-.12-.53,0-.95.1-1.24.3-.29.21-.44.51-.44.92,0,.24.05.44.15.59.1.15.23.28.39.38.16.1.35.18.56.24.21.06.44.12.69.17.37.09.73.18,1.08.29.35.11.65.26.92.46.27.19.47.45.63.77.15.31.23.72.23,1.21s-.09.95-.26,1.31c-.18.37-.43.67-.76.92-.33.24-.73.42-1.19.54-.47.11-.97.17-1.53.17-.48,0-.96-.05-1.42-.15-.47-.1-.85-.24-1.17-.42v-1.46c.44.2.87.35,1.28.44.42.09.85.14,1.3.14.25,0,.51-.02.75-.07.26-.04.48-.12.68-.22.2-.11.35-.26.48-.44.11-.19.18-.42.18-.69Z"/>
      </g>
      <path class="cls-5" d="m93.09,30.86c-8.11,0-14.7-6.6-14.7-14.71s6.6-14.71,14.7-14.71,14.72,6.6,14.72,14.71-6.6,14.71-14.72,14.71Zm0-20.32c-3.08,0-5.6,2.51-5.6,5.61s2.52,5.6,5.6,5.6,5.61-2.51,5.61-5.6-2.51-5.61-5.61-5.61Z"/>
      <polygon class="cls-4" points="18.67 2.56 0 21.87 6.28 28.34 18.52 15.65 30.95 28.33 37.22 21.87 18.67 2.56"/>
      <polygon class="cls-3" points="57.88 2.56 39.22 21.87 45.49 28.33 57.74 15.65 70.16 28.33 76.44 21.87 57.88 2.56"/>
    </g>
    <g>
      <path class="cls-1" d="m132.73,23.53h-16.57v-4.42h39.23v4.42h-16.33v2.54c1.38.29,2.65.74,3.82,1.34,1.17.61,2.19,1.33,3.05,2.16.83.86,1.49,1.81,1.97,2.83.48,1.02.72,2.11.72,3.27,0,1.38-.34,2.67-1.01,3.89-.67,1.22-1.58,2.27-2.74,3.17-1.19.9-2.56,1.61-4.13,2.14-1.57.53-3.23.79-4.99.79s-3.47-.26-5.02-.79c-1.55-.53-2.91-1.24-4.06-2.14-1.18-.9-2.11-1.95-2.79-3.17-.67-1.22-1.01-2.51-1.01-3.89,0-1.15.25-2.26.74-3.31.5-1.06,1.19-2.02,2.09-2.88.86-.83,1.9-1.55,3.1-2.16,1.2-.61,2.5-1.04,3.91-1.3v-2.5Zm15.7-11.43c.26.06.59.1,1.01.12.42.02.82.04,1.2.07.45.03.9.06,1.34.1v4.71c-.7-.03-1.34-.06-1.92-.1-.51-.03-1.01-.06-1.49-.1-.48-.03-.83-.08-1.06-.14-.67-.13-1.49-.26-2.45-.41-.96-.14-1.99-.39-3.07-.74-1.09-.32-2.17-.77-3.24-1.34-1.07-.58-2.06-1.34-2.95-2.31-.86.96-1.84,1.72-2.93,2.28-1.09.56-2.18,1-3.27,1.32-1.09.32-2.14.57-3.14.74-1.01.18-1.87.33-2.57.46-.22.06-.58.11-1.06.14-.48.03-.98.06-1.49.1-.58.03-1.22.06-1.92.1v-4.71c.45-.03.9-.06,1.34-.1.38-.03.78-.06,1.18-.07.4-.02.74-.06,1.03-.12.32-.03.89-.1,1.7-.19.82-.1,1.69-.27,2.62-.53.93-.26,1.83-.66,2.71-1.2.88-.54,1.54-1.3,1.99-2.26h-11.91V3.27h12.39c-.1-.61-.2-1.12-.31-1.54-.11-.42-.23-.75-.36-1.01-.13-.32-.26-.56-.38-.72h6.63c.16.16.3.4.43.72.13.26.26.59.38,1.01.13.42.24.93.34,1.54h12.01v4.66h-11.62c.51.99,1.22,1.76,2.11,2.3.9.55,1.81.94,2.74,1.2.9.29,1.72.46,2.47.53.75.06,1.26.11,1.51.14Zm-12.68,29.15c.9,0,1.74-.14,2.54-.43.8-.29,1.5-.69,2.11-1.2.61-.51,1.08-1.1,1.42-1.78.34-.67.5-1.39.5-2.16s-.17-1.49-.5-2.16c-.34-.67-.81-1.26-1.42-1.78-.61-.51-1.31-.91-2.11-1.2-.8-.29-1.65-.43-2.54-.43s-1.79.14-2.57.43c-.78.29-1.48.69-2.09,1.2-.61.51-1.08,1.1-1.42,1.78-.34.67-.5,1.39-.5,2.16s.17,1.49.5,2.16c.34.67.81,1.27,1.42,1.78.61.51,1.3.91,2.09,1.2.78.29,1.64.43,2.57.43Z"/>
      <path class="cls-1" d="m180.99,17.82l.34.05v4.61h-.43c-1.12,0-2.27-.17-3.46-.5-1.18-.34-2.31-.78-3.36-1.32-1.09-.54-2.06-1.16-2.93-1.85-.86-.69-1.54-1.4-2.02-2.14-.48.74-1.16,1.45-2.04,2.14-.88.69-1.85,1.31-2.91,1.85-1.09.54-2.23.98-3.43,1.32-1.2.34-2.35.5-3.43.5h-.38v-4.61l.29-.05c1.15-.22,2.24-.58,3.27-1.08,1.02-.5,1.92-1.11,2.69-1.85.77-.7,1.39-1.55,1.87-2.54.48-.99.77-2.11.86-3.36h-8.36v-4.71h8.26c-.06-.8-.16-1.46-.29-1.99-.13-.53-.26-.97-.38-1.32-.13-.38-.29-.69-.48-.91h6.24c.22.22.42.53.58.91.16.35.31.79.46,1.32.14.53.25,1.19.31,1.99h8.4v4.71h-8.36c.1,1.25.38,2.37.86,3.36.48.99,1.1,1.84,1.87,2.54.77.74,1.66,1.35,2.69,1.85,1.02.5,2.11.86,3.27,1.08Zm-1.34,5.95c1.76,0,3.43.29,4.99.86,1.57.58,2.94,1.36,4.13,2.35,1.15.99,2.06,2.15,2.74,3.48.67,1.33,1.01,2.75,1.01,4.25s-.34,2.92-1.01,4.25c-.67,1.33-1.58,2.49-2.74,3.48-1.18.99-2.56,1.78-4.13,2.35-1.57.58-3.23.86-4.99.86s-3.47-.29-5.02-.86c-1.55-.58-2.91-1.36-4.06-2.35-1.18-.99-2.11-2.15-2.79-3.48-.67-1.33-1.01-2.74-1.01-4.25s.34-2.92,1.01-4.25c.67-1.33,1.6-2.49,2.79-3.48,1.15-.99,2.5-1.78,4.06-2.35,1.55-.58,3.22-.86,5.02-.86Zm0,17.29c.9,0,1.74-.17,2.54-.5.8-.34,1.5-.79,2.11-1.37.58-.58,1.04-1.25,1.39-2.02.35-.77.53-1.6.53-2.5s-.18-1.68-.53-2.45c-.35-.77-.82-1.44-1.39-2.02-.61-.58-1.31-1.03-2.11-1.37-.8-.34-1.65-.5-2.54-.5s-1.79.17-2.57.5c-.78.34-1.48.79-2.09,1.37-.61.58-1.08,1.25-1.42,2.02-.34.77-.5,1.59-.5,2.45s.17,1.73.5,2.5c.34.77.81,1.44,1.42,2.02.61.58,1.3,1.03,2.09,1.37.78.34,1.64.5,2.57.5ZM190.74.96c.48,0,.9.18,1.25.53.35.35.53.77.53,1.25v20.99h-6.34v-8.12h-6.67v-4.66h6.67V.96h4.56Z"/>
      <path class="cls-1" d="m223.64,21.13c-1.06.45-2.23.74-3.51.86-1.54.19-3.06.29-4.56.29h-11.09c-.83,0-1.62-.16-2.38-.48-.75-.32-1.4-.75-1.94-1.3-.54-.54-.98-1.19-1.3-1.94-.32-.75-.48-1.54-.48-2.38v-7.54c0-1.22-.07-2.23-.22-3.05-.14-.82-.3-1.46-.46-1.94-.19-.58-.4-1.01-.62-1.3h6.19c.26.29.5.72.72,1.3.16.48.32,1.13.48,1.94.16.82.24,1.83.24,3.05v7.2c0,.51.18.94.53,1.27.35.34.77.5,1.25.5h11.38c1.63-.03,2.94-.18,3.91-.43.98-.26,1.59-.45,1.85-.58V.91h4.56c.51,0,.94.18,1.27.53.34.35.5.78.5,1.3v7.25h6.29v4.66h-6.29v9.08h-6.34v-2.59Zm-19.54,17.29v-13.01h25.88v19.06h-19.78c-.86,0-1.66-.16-2.4-.48-.74-.32-1.38-.75-1.92-1.3-.54-.54-.98-1.18-1.3-1.92-.32-.74-.48-1.52-.48-2.35Zm6.34-8.36v7.97c0,.51.18.94.53,1.3.35.35.77.53,1.25.53h11.43v-9.8h-13.21Z"/>
      <path class="cls-1" d="m256.48,34.72h14.12v4.66h-34.91v-4.66h14.45v-9.12h6.34v9.12Zm10.47-27.85h-23.15c.1.16.21.38.34.67.13.29.26.67.38,1.15.13.51.24,1.13.34,1.85.1.72.14,1.58.14,2.57v4.03c0,.51.17.94.5,1.27.34.34.76.5,1.27.5h20.17v4.66h-22.23c-.83,0-1.62-.16-2.38-.48-.75-.32-1.4-.75-1.94-1.3-.54-.54-.98-1.19-1.3-1.94-.32-.75-.48-1.54-.48-2.38v-9.03c0-1.22-.06-2.23-.19-3.03-.13-.8-.27-1.44-.43-1.92-.19-.58-.4-1.01-.62-1.3h29.58v4.66Z"/>
      <path class="cls-1" d="m307.53,2.74v40.53h-6.34v-16.13h-7.15c-1.06,1.99-2.41,3.56-4.06,4.73-1.65,1.17-3.47,1.75-5.45,1.75-1.6,0-3.11-.4-4.54-1.2-1.42-.8-2.67-1.89-3.72-3.27-1.06-1.38-1.89-2.98-2.5-4.83-.61-1.84-.91-3.82-.91-5.93s.3-4.09.91-5.93c.61-1.84,1.44-3.45,2.5-4.83,1.06-1.38,2.3-2.46,3.72-3.27,1.42-.8,2.94-1.2,4.54-1.2,1.92,0,3.7.57,5.33,1.7,1.63,1.14,2.99,2.65,4.08,4.54h7.25V.96h4.56c.48,0,.9.17,1.25.5.35.34.53.76.53,1.27Zm-23,26.36c.74,0,1.42-.28,2.06-.84.64-.56,1.2-1.34,1.68-2.33.48-.96.86-2.09,1.15-3.39.29-1.3.43-2.68.43-4.15s-.14-2.86-.43-4.18c-.29-1.31-.67-2.46-1.15-3.46-.48-.96-1.04-1.72-1.68-2.28-.64-.56-1.33-.84-2.06-.84s-1.43.28-2.09.84c-.66.56-1.22,1.32-1.71,2.28-.48.99-.86,2.15-1.15,3.46-.29,1.31-.43,2.71-.43,4.18s.14,2.86.43,4.15c.29,1.3.67,2.42,1.15,3.39.48.99,1.05,1.77,1.71,2.33.66.56,1.35.84,2.09.84Zm11.67-10.71c0,1.44-.14,2.8-.43,4.08h5.43v-8.4h-5.47c.16.7.28,1.42.36,2.14.08.72.12,1.45.12,2.18Z"/>
      <path class="cls-1" d="m336.24,17.91v4.71l-1.83-.34c-.83-.19-1.7-.45-2.62-.77-.91-.32-1.83-.72-2.76-1.2-.96-.48-1.88-1.06-2.76-1.75-.88-.69-1.69-1.5-2.43-2.43-.74.99-1.56,1.85-2.47,2.57-.91.72-1.85,1.34-2.81,1.85-.96.55-1.91.99-2.86,1.34-.94.35-1.83.62-2.66.82l-1.01.19v-4.71l.34-.1c.8-.32,1.66-.69,2.59-1.1.93-.42,1.79-.99,2.59-1.73.8-.74,1.47-1.68,2.02-2.83.54-1.15.85-2.62.91-4.42,0-1.22-.07-2.23-.22-3.05-.14-.82-.3-1.46-.46-1.94-.19-.58-.4-1.01-.62-1.3h6.29c.22.26.43.61.62,1.06.16.38.32.89.48,1.51.16.62.27,1.4.34,2.33,0,2.08.26,3.76.79,5.04.53,1.28,1.21,2.31,2.04,3.07.8.77,1.68,1.36,2.64,1.78.96.42,1.86.8,2.69,1.15l1.15.24Zm-1.68,5.86c1.76,0,3.42.29,4.99.86,1.57.58,2.94,1.36,4.13,2.35,1.15.99,2.06,2.15,2.74,3.48.67,1.33,1.01,2.75,1.01,4.25s-.34,2.92-1.01,4.25c-.67,1.33-1.58,2.49-2.74,3.48-1.18.99-2.56,1.78-4.13,2.35-1.57.58-3.23.86-4.99.86s-3.47-.29-5.02-.86c-1.55-.58-2.91-1.36-4.06-2.35-1.19-.99-2.11-2.15-2.79-3.48-.67-1.33-1.01-2.74-1.01-4.25s.34-2.92,1.01-4.25c.67-1.33,1.6-2.49,2.79-3.48,1.15-.99,2.5-1.78,4.06-2.35,1.55-.58,3.23-.86,5.02-.86Zm0,17.29c.9,0,1.74-.17,2.54-.5.8-.34,1.5-.79,2.11-1.37.58-.58,1.04-1.25,1.39-2.02.35-.77.53-1.58.53-2.45s-.18-1.73-.53-2.5c-.35-.77-.82-1.44-1.39-2.02-.61-.58-1.31-1.03-2.11-1.37-.8-.34-1.65-.5-2.54-.5s-1.79.17-2.57.5c-.78.34-1.48.79-2.09,1.37-.61.58-1.08,1.25-1.42,2.02-.34.77-.5,1.6-.5,2.5s.17,1.68.5,2.45c.34.77.81,1.44,1.42,2.02.61.58,1.3,1.03,2.09,1.37.78.34,1.64.5,2.57.5Zm6.48-17.38v-10.95h-7.3v-4.66h7.3V.91h4.56c.51,0,.94.18,1.3.53.35.35.53.78.53,1.3v20.94h-6.39Z"/>
      <path class="cls-1" d="m373.65,4.9v.6c0,.11-.02.28-.05.5-.22,3.81-.9,7.24-2.02,10.3-1.12,3.06-2.58,5.72-4.37,8-1.82,2.31-3.95,4.22-6.36,5.74-2.42,1.52-5.03,2.65-7.85,3.39l-1.01.19v-4.61l.34-.1c2.53-.99,4.68-2.21,6.46-3.65,1.78-1.44,3.24-3.04,4.39-4.8,1.15-1.76,2.02-3.67,2.59-5.71.58-2.05.9-4.19.96-6.43h-13.11V3.65h20.02v1.25Zm17.72,10.18v4.66h-6.29v23.48h-6.34V.91h4.56c.48,0,.9.18,1.25.53.35.35.53.77.53,1.25v12.39h6.29Z"/>
      <path class="cls-1" d="m413.75,21.13h16.33v4.51h-39.23v-4.51h16.57v-5.19h6.34v5.19Zm9.36-8.74c.29.06.6.1.94.12.34.02.66.04.98.07.35.03.72.06,1.1.1v4.71c-.58-.03-1.12-.06-1.63-.1-.45-.03-.89-.06-1.32-.1-.43-.03-.76-.08-.98-.14-.67-.13-1.49-.29-2.45-.48-.96-.19-1.99-.48-3.07-.86-1.09-.38-2.17-.9-3.24-1.56-1.07-.66-2.06-1.5-2.95-2.52-.87.99-1.84,1.81-2.93,2.45-1.09.64-2.18,1.15-3.27,1.54-1.09.38-2.14.69-3.15.91-1.01.22-1.87.4-2.57.53-.22.06-.54.11-.96.14-.42.03-.85.06-1.3.1-.51.03-1.06.06-1.63.1v-4.71c.35-.03.7-.06,1.06-.1.32-.03.65-.06.98-.07.34-.02.65-.06.94-.12.35-.06.81-.14,1.37-.22.56-.08,1.18-.22,1.85-.41.64-.16,1.3-.38,1.97-.67.67-.29,1.31-.67,1.92-1.15.58-.45,1.08-.98,1.51-1.61.43-.62.71-1.38.84-2.28h-11.76V1.34h30.01v4.71h-11.62c.19.9.52,1.67.98,2.33.46.66,1,1.21,1.61,1.66.61.48,1.25.86,1.92,1.15.67.29,1.33.51,1.97.67.61.16,1.17.28,1.68.36.51.08.91.14,1.2.17Zm.91,16.38v15.7h-6.34v-11.04h-20.7v-4.66h27.04Z"/>
      <path class="cls-1" d="m455.67,17.82l.34.05v4.61h-.43c-1.12,0-2.27-.17-3.46-.5-1.18-.34-2.3-.78-3.36-1.32-1.09-.54-2.07-1.16-2.93-1.85-.86-.69-1.54-1.4-2.02-2.14-.48.74-1.16,1.45-2.04,2.14-.88.69-1.85,1.31-2.91,1.85-1.09.54-2.23.98-3.43,1.32-1.2.34-2.35.5-3.43.5h-.38v-4.61l.29-.05c1.15-.22,2.24-.58,3.27-1.08,1.02-.5,1.92-1.11,2.69-1.85.77-.7,1.39-1.55,1.87-2.54.48-.99.77-2.11.86-3.36h-8.36v-4.71h8.26c-.06-.8-.16-1.46-.29-1.99s-.26-.97-.38-1.32c-.13-.38-.29-.69-.48-.91h6.24c.22.22.42.53.58.91.16.35.31.79.46,1.32.14.53.25,1.19.31,1.99h8.4v4.71h-8.36c.1,1.25.38,2.37.87,3.36.48.99,1.1,1.84,1.87,2.54.77.74,1.66,1.35,2.69,1.85,1.02.5,2.11.86,3.27,1.08Zm-1.34,5.95c1.76,0,3.42.29,4.99.86,1.57.58,2.95,1.36,4.13,2.35,1.15.99,2.06,2.15,2.74,3.48.67,1.33,1.01,2.75,1.01,4.25s-.34,2.92-1.01,4.25c-.67,1.33-1.58,2.49-2.74,3.48-1.18.99-2.56,1.78-4.13,2.35-1.57.58-3.23.86-4.99.86s-3.47-.29-5.02-.86c-1.55-.58-2.91-1.36-4.06-2.35-1.18-.99-2.11-2.15-2.79-3.48-.67-1.33-1.01-2.74-1.01-4.25s.34-2.92,1.01-4.25c.67-1.33,1.6-2.49,2.79-3.48,1.15-.99,2.5-1.78,4.06-2.35,1.55-.58,3.23-.86,5.02-.86Zm0,17.29c.9,0,1.74-.17,2.54-.5.8-.34,1.5-.79,2.11-1.37.58-.58,1.04-1.25,1.39-2.02.35-.77.53-1.6.53-2.5s-.18-1.68-.53-2.45c-.35-.77-.82-1.44-1.39-2.02-.61-.58-1.31-1.03-2.11-1.37-.8-.34-1.65-.5-2.54-.5s-1.79.17-2.57.5c-.79.34-1.48.79-2.09,1.37-.61.58-1.08,1.25-1.42,2.02-.34.77-.5,1.59-.5,2.45s.17,1.73.5,2.5c.34.77.81,1.44,1.42,2.02.61.58,1.3,1.03,2.09,1.37.78.34,1.64.5,2.57.5ZM465.42.96c.48,0,.9.18,1.25.53.35.35.53.77.53,1.25v20.99h-6.34v-8.12h-6.68v-4.66h6.68V.96h4.56Z"/>
      <path class="cls-1" d="m491.35,34.72h14.07v4.66h-34.86v-4.66h14.45v-8.79h6.34v8.79Zm0-26.17v1.97c.19,1.7.68,3.12,1.46,4.27.78,1.15,1.69,2.08,2.71,2.79.99.74,1.98,1.29,2.95,1.66.98.37,1.75.6,2.33.7.26.06.55.11.89.14.34.03.65.08.94.14.35.06.67.11.96.14v4.71c-.54-.03-1.06-.08-1.54-.14-.42-.06-.83-.12-1.25-.17-.42-.05-.74-.1-.96-.17-.9-.19-1.87-.46-2.91-.82-1.04-.35-2.07-.8-3.1-1.34-1.06-.54-2.08-1.19-3.07-1.94-.99-.75-1.89-1.64-2.69-2.67-.8,1.02-1.7,1.91-2.69,2.67-.99.75-2.02,1.4-3.07,1.94-1.06.54-2.1.99-3.12,1.34-1.03.35-1.99.62-2.88.82-.26.06-.58.12-.98.17-.4.05-.81.1-1.22.17-.48.06-.98.11-1.49.14v-4.71c.32-.03.64-.08.96-.14.26-.06.54-.11.87-.14.32-.03.62-.08.91-.14.42-.06.94-.2,1.58-.41.64-.21,1.33-.5,2.06-.89.7-.38,1.42-.86,2.14-1.44.72-.58,1.37-1.28,1.95-2.11.58-.8,1.02-1.74,1.34-2.83.32-1.09.46-2.32.43-3.7,0-1.22-.07-2.22-.22-3.03-.14-.8-.3-1.44-.46-1.92-.19-.58-.4-1.01-.62-1.3h6.29c.26.29.5.72.72,1.3.19.48.37,1.12.53,1.92.16.8.24,1.81.24,3.03Z"/>
      <path class="cls-1" d="m532.65,18.15v4.51c-.99.42-2.16.72-3.51.91-.74.06-1.49.12-2.26.17-.77.05-1.54.07-2.31.07h-9.56c-.83,0-1.62-.16-2.38-.48-.75-.32-1.4-.75-1.95-1.3-.54-.54-.98-1.19-1.3-1.94-.32-.75-.48-1.54-.48-2.38v-8.84c0-1.22-.06-2.22-.19-3.03-.13-.8-.27-1.44-.43-1.92-.19-.58-.4-1.01-.62-1.3h6.15c.26.29.5.72.72,1.3.19.48.37,1.12.53,1.92.16.8.24,1.81.24,3.03v8.5c0,.51.17.94.5,1.27.34.34.76.5,1.27.5h9.84c1.63-.03,2.93-.18,3.89-.43.96-.26,1.57-.45,1.83-.58Zm-10.71,19.88c0,.51.18.94.53,1.3.35.35.77.53,1.25.53h18.87v4.61h-20.89c-.83,0-1.62-.16-2.38-.48-.75-.32-1.4-.75-1.95-1.3-.54-.54-.98-1.18-1.3-1.92-.32-.74-.48-1.52-.48-2.35v-10.32h6.34v9.94Zm20.12-35.3v30.93h-6.39v-17h-8.79v-4.51h8.79v-2.21h-8.79v-4.51h8.79V.91h4.56c.51,0,.94.18,1.3.53.35.35.53.78.53,1.3Z"/>
      <path class="cls-1" d="m561.22,9.94v3.36c.06,2.3.27,4.27.62,5.88.35,1.62.86,3,1.54,4.15.67,1.15,1.5,2.14,2.47,2.95.98.82,2.14,1.56,3.48,2.23.06.03.19.06.38.1.19.03.35.07.48.1v4.75l-1.54-.34c-.83-.26-1.72-.6-2.67-1.03-.95-.43-1.9-1-2.86-1.71-.96-.67-1.89-1.51-2.79-2.52-.9-1.01-1.71-2.22-2.45-3.63-.74,1.44-1.56,2.67-2.47,3.7-.91,1.02-1.83,1.89-2.76,2.59-.96.7-1.91,1.27-2.83,1.71-.93.43-1.78.78-2.55,1.03l-1.01.19v-4.66c.06-.03.12-.06.17-.07.05-.02.1-.04.17-.07,1.28-.67,2.41-1.43,3.39-2.28.98-.85,1.8-1.9,2.47-3.14.67-1.22,1.2-2.69,1.58-4.42.38-1.73.61-3.81.67-6.24v-2.64c0-1.22-.07-2.23-.22-3.05-.14-.82-.3-1.46-.46-1.94-.19-.58-.4-1.01-.62-1.3h6.29c.26.29.48.67.67,1.15.16.45.32,1.02.48,1.7.16.69.27,1.58.34,2.67v.77Zm25.12,4.9v4.66h-6.29v23.72h-6.39V.91h4.61c.48,0,.9.18,1.25.53.35.35.53.78.53,1.3v12.1h6.29Z"/>
      <path class="cls-1" d="m609.96,33.37c1.5,0,2.7-.1,3.58-.31.88-.21,1.4-.34,1.56-.41V.96h4.56c.48,0,.9.17,1.25.5.35.34.53.76.53,1.27v40.48h-6.34v-6.19c-1.25.32-2.49.56-3.72.72-1.23.16-2.47.24-3.72.24h-20.03v-4.61h8.93v-6.34c-1.12-.32-2.16-.8-3.12-1.44-.96-.64-1.78-1.39-2.45-2.26-.7-.86-1.25-1.83-1.63-2.91-.38-1.07-.58-2.18-.58-3.34,0-1.6.34-3.08,1.03-4.44.69-1.36,1.62-2.52,2.81-3.48h-4.66v-4.66h8.74c-.06-.83-.16-1.54-.29-2.11-.13-.58-.27-1.04-.43-1.39-.16-.42-.34-.75-.53-1.01h6.2c.19.26.37.58.53.96.16.35.31.82.46,1.39.14.58.25,1.3.31,2.16h8.31v4.66h-4.71c1.18.96,2.13,2.12,2.83,3.48.7,1.36,1.06,2.84,1.06,4.44,0,1.15-.18,2.25-.55,3.29-.37,1.04-.89,1.99-1.56,2.86-.67.86-1.47,1.62-2.4,2.26-.93.64-1.94,1.12-3.03,1.44v6.44h7.06Zm-10.37-10.47c.64,0,1.24-.16,1.8-.48.56-.32,1.05-.75,1.46-1.3.38-.54.7-1.19.94-1.94.24-.75.36-1.54.36-2.38s-.12-1.66-.36-2.4c-.24-.74-.55-1.39-.94-1.97-.42-.54-.9-.98-1.46-1.3-.56-.32-1.16-.48-1.8-.48s-1.23.16-1.78.48c-.54.32-1.01.75-1.39,1.3-.42.58-.74,1.23-.98,1.97-.24.74-.36,1.54-.36,2.4s.12,1.62.36,2.38c.24.75.57,1.4.98,1.94.38.54.85.98,1.39,1.3.54.32,1.14.48,1.78.48Z"/>
      <path class="cls-1" d="m641.46,9.94v2.59c.06,2.47.29,4.55.7,6.24.4,1.7.97,3.15,1.7,4.37.74,1.22,1.62,2.24,2.66,3.07,1.04.83,2.25,1.6,3.63,2.31l.58.19v4.75l-1.25-.34c-.83-.26-1.75-.6-2.74-1.03-.99-.43-1.99-1-2.98-1.71-.99-.7-1.96-1.57-2.91-2.59-.94-1.02-1.8-2.26-2.57-3.7-.74,1.47-1.56,2.73-2.47,3.77-.91,1.04-1.85,1.91-2.81,2.62-.96.74-1.91,1.32-2.86,1.75-.94.43-1.82.78-2.62,1.03l-1.01.19v-4.75l.34-.05c1.28-.67,2.42-1.43,3.41-2.28.99-.85,1.83-1.9,2.5-3.14.67-1.22,1.19-2.69,1.56-4.42.37-1.73.58-3.81.65-6.24v-2.64c0-1.22-.07-2.23-.22-3.05-.14-.82-.3-1.46-.46-1.94-.19-.58-.4-1.01-.62-1.3h6.29c.26.29.48.67.67,1.15.16.45.32,1.02.48,1.7.16.69.27,1.58.34,2.67v.77Zm20.17-7.2v40.48h-6.34v-24.83h-7.88v-4.66h7.88V.91h4.56c.51,0,.94.18,1.27.53.34.35.5.78.5,1.3Z"/>
      <path class="cls-1" d="m683.38,3.7h6.34v28.81h-14.89c-.83,0-1.62-.16-2.38-.48-.75-.32-1.4-.75-1.94-1.3-.54-.54-.98-1.19-1.3-1.94-.32-.75-.48-1.54-.48-2.38V9.94c0-1.22-.07-2.22-.22-3.02-.14-.8-.3-1.44-.46-1.92-.19-.58-.4-1.02-.62-1.34h6.2c.26.32.5.77.72,1.34.16.48.32,1.12.48,1.92.16.8.24,1.81.24,3.02v3.36h8.31V3.7Zm-6.48,24.15h6.48v-9.89h-8.31v8.12c0,.51.18.94.53,1.27.35.34.78.5,1.3.5Zm24.59-25.12v40.48h-6.34V.96h4.56c.48,0,.9.17,1.25.5.35.34.53.76.53,1.27Z"/>
      <path class="cls-1" d="m705.38,34.72h34.86v4.66h-34.86v-4.66Zm20.79-25.88v2.5c.19,1.7.69,3.13,1.49,4.3.8,1.17,1.7,2.12,2.69,2.86.99.77,1.98,1.35,2.98,1.75.99.4,1.76.66,2.3.79.26.06.55.14.89.22.34.08.65.15.94.22l.96.24v4.71c-.54-.1-1.06-.19-1.54-.29-.42-.06-.83-.14-1.25-.22-.42-.08-.74-.15-.96-.22-.9-.19-1.87-.47-2.91-.84-1.04-.37-2.07-.84-3.1-1.42-1.06-.54-2.08-1.2-3.07-1.97-.99-.77-1.89-1.68-2.69-2.74-.8,1.06-1.7,1.97-2.69,2.74-.99.77-2.02,1.42-3.07,1.97-1.06.58-2.1,1.05-3.12,1.42-1.03.37-1.99.65-2.88.84-.26.06-.58.14-.98.22-.4.08-.81.15-1.22.22-.48.1-.99.19-1.54.29v-4.71l.96-.24c.29-.06.59-.14.91-.22.32-.08.62-.15.91-.22.42-.06.94-.21,1.58-.43.64-.22,1.33-.54,2.06-.96.7-.38,1.42-.87,2.14-1.46.72-.59,1.37-1.3,1.95-2.14.58-.8,1.02-1.74,1.34-2.81.32-1.07.46-2.28.43-3.63v-.77c0-1.22-.07-2.23-.22-3.05s-.3-1.46-.46-1.94c-.19-.58-.4-1.01-.62-1.3h6.29c.26.29.5.72.72,1.3.19.48.37,1.13.53,1.94.16.82.24,1.83.24,3.05Z"/>
      <path class="cls-1" d="m768.48,23.1c-.61.29-1.67.56-3.17.82-1.51.26-3.14.38-4.9.38h-2.64v5.14h-6.34v-5.14h-8.93v-4.56h19.83c.51,0,1.08-.03,1.71-.1.62-.06,1.22-.14,1.8-.24.58-.1,1.1-.2,1.56-.31.46-.11.82-.23,1.08-.36v4.37Zm-13.49-22.09c1.54,0,2.98.22,4.32.67,1.34.45,2.53,1.06,3.55,1.82.99.8,1.78,1.72,2.38,2.76.59,1.04.89,2.15.89,3.34s-.3,2.3-.89,3.34c-.59,1.04-1.38,1.94-2.38,2.71-1.03.8-2.21,1.42-3.55,1.87-1.34.45-2.79.67-4.32.67s-2.98-.22-4.32-.67c-1.34-.45-2.51-1.07-3.51-1.87-1.02-.77-1.82-1.67-2.4-2.71-.58-1.04-.86-2.15-.86-3.34s.29-2.3.86-3.34c.58-1.04,1.38-1.96,2.4-2.76.99-.77,2.16-1.38,3.51-1.82,1.34-.45,2.79-.67,4.32-.67Zm.43,37.07c0,.48.18.9.53,1.25.35.35.78.53,1.3.53h19.93v4.66h-21.99c-.83,0-1.62-.16-2.38-.48-.75-.32-1.4-.75-1.95-1.3-.54-.54-.98-1.19-1.3-1.94-.32-.75-.48-1.54-.48-2.38v-7.39h6.34v7.06Zm-.43-24.2c.67,0,1.3-.11,1.87-.34.58-.22,1.09-.53,1.54-.91.41-.38.75-.84,1.01-1.37.26-.53.38-1.08.38-1.66,0-1.22-.46-2.23-1.39-3.05-.93-.82-2.07-1.22-3.41-1.22s-2.48.41-3.41,1.22c-.93.82-1.39,1.83-1.39,3.05,0,.58.12,1.13.36,1.66.24.53.58.98,1.03,1.37.42.38.92.69,1.51.91.59.22,1.22.34,1.9.34Zm21.85-11.14v30.93h-6.34v-3.31h-7.54v-4.66h7.54V.96h4.56c.48,0,.9.17,1.25.5.35.34.53.76.53,1.27Z"/>
    </g>
  </g>
</svg>