<?xml version="1.0" encoding="UTF-8"?>
<svg id="_레이어_2" data-name="레이어 2" xmlns="http://www.w3.org/2000/svg" viewBox="0 0 30.97 20.58">
  <defs>
    <style>
      .cls-1 {
        stroke-width: 0px;
      }
    </style>
  </defs>
  <g id="_레이어_1-2" data-name="레이어 1">
    <g>
      <g>
        <path class="cls-1" d="m0,19.52h.99v.16c-.46.04-.72.19-.72.45,0,.29.35.45.93.45.58,0,.92-.16.92-.45,0-.25-.26-.41-.71-.45v-.16h1v-.32H0v.32Zm1.71.61c0,.11-.17.15-.51.15s-.51-.04-.51-.15c0-.11.16-.15.51-.15s.51.04.51.15Z"/>
        <path class="cls-1" d="m.09,18.81l.12.31c.5-.03.82-.17.99-.37.16.2.49.34.99.37l.12-.31c-.56-.03-.79-.17-.86-.33h.73v-.33h-.77v-.22h-.41v.22H.22v.33h.72c-.06.15-.3.29-.86.33Z"/>
        <path class="cls-1" d="m3.35,19.02c.12.2.32.36.62.43l.19-.32c-.42-.11-.6-.36-.61-.61h.51v-.33h-.51v-.27h-.42v.27h-.51v.33h.51c-.01.27-.18.56-.61.67l.19.32c.31-.08.52-.27.63-.5Z"/>
        <path class="cls-1" d="m3.87,19.57c-.56,0-.91.18-.91.5s.35.51.91.51c.57,0,.92-.19.92-.51,0-.32-.35-.5-.92-.5Zm0,.7c-.33,0-.5-.07-.5-.2s.17-.19.5-.18c.34,0,.51.06.51.18,0,.13-.17.2-.51.2Z"/>
        <polygon class="cls-1" points="4.79 19.53 4.79 17.93 4.37 17.93 4.37 18.63 3.98 18.63 3.98 18.96 4.37 18.96 4.37 19.53 4.79 19.53"/>
        <polygon class="cls-1" points="7.2 17.94 6.79 17.94 6.79 19.42 7.2 19.42 7.2 18.81 7.55 18.81 7.55 18.48 7.2 18.48 7.2 17.94"/>
        <path class="cls-1" d="m6.59,18.86c-.34.06-.67.1-.98.1v-.9h-.42v1.24h.23c.37,0,.78-.02,1.21-.11l-.05-.34Z"/>
        <path class="cls-1" d="m5.45,20.54h1.75v-1.01h-1.75v1.01Zm.41-.69h.93v.37h-.93v-.37Z"/>
        <polygon class="cls-1" points="9.05 19.42 9.8 19.42 9.8 19.1 8.34 19.1 8.34 18.44 9.79 18.44 9.79 18.11 7.92 18.11 7.92 19.42 8.64 19.42 8.64 19.95 7.64 19.95 7.64 20.28 10.06 20.28 10.06 19.95 9.05 19.95 9.05 19.42"/>
        <polygon class="cls-1" points="12.28 18.96 12.68 18.96 12.68 19.53 13.09 19.53 13.09 17.93 12.68 17.93 12.68 18.63 12.28 18.63 12.28 18.96"/>
        <path class="cls-1" d="m11.65,19.02c.12.2.32.36.62.43l.19-.32c-.42-.11-.6-.36-.61-.61h.51v-.33h-.51v-.27h-.42v.27h-.51v.33h.51c-.01.27-.18.56-.61.67l.19.32c.31-.08.52-.27.63-.5Z"/>
        <path class="cls-1" d="m12.18,19.57c-.56,0-.91.18-.91.5s.35.51.91.51c.57,0,.92-.19.92-.51,0-.32-.35-.5-.92-.5Zm0,.7c-.33,0-.5-.07-.5-.2s.17-.19.5-.18c.34,0,.51.06.51.18,0,.13-.17.2-.51.2Z"/>
        <polygon class="cls-1" points="14.8 19.36 14.39 19.36 14.39 19.94 13.4 19.94 13.4 20.27 15.82 20.27 15.82 19.94 14.8 19.94 14.8 19.36"/>
        <path class="cls-1" d="m14.59,18.82c.17.31.5.55.98.64l.18-.35c-.65-.1-.93-.5-.93-.86v-.18h-.44v.18c0,.35-.28.76-.92.86l.18.35c.47-.08.8-.32.97-.64Z"/>
        <path class="cls-1" d="m17.4,19.13c-.31.05-.59.07-.9.08v-1.11h-.41v1.45h.21c.4,0,.75-.01,1.13-.09l-.04-.33Z"/>
        <polygon class="cls-1" points="17.77 19.87 18.18 19.87 18.18 17.94 17.77 17.94 17.77 18.21 17.15 18.21 17.15 18.54 17.77 18.54 17.77 18.7 17.15 18.7 17.15 19.03 17.77 19.03 17.77 19.87"/>
        <polygon class="cls-1" points="16.83 19.7 16.41 19.7 16.41 20.53 18.25 20.53 18.25 20.2 16.83 20.2 16.83 19.7"/>
        <polygon class="cls-1" points="20.62 17.93 20.21 17.93 20.21 19.49 20.62 19.49 20.62 18.89 20.94 18.89 20.94 18.54 20.62 18.54 20.62 17.93"/>
        <polygon class="cls-1" points="20.04 18.09 19.49 18.09 19.49 17.91 19.08 17.91 19.08 18.09 18.53 18.09 18.53 18.36 20.04 18.36 20.04 18.09"/>
        <path class="cls-1" d="m20.1,19.12c-.19.02-.4.04-.61.05v-.09c.28-.04.45-.16.45-.34,0-.21-.26-.34-.66-.34s-.66.13-.66.34c0,.19.17.31.45.34v.1c-.22,0-.43,0-.62,0l.04.28c.46,0,1.06,0,1.62-.1l-.03-.25Zm-.82-.28c-.17,0-.26-.03-.26-.1s.09-.09.26-.09.26.02.26.09-.09.1-.26.1Z"/>
        <polygon class="cls-1" points="19.23 20.18 20.62 20.18 20.62 19.57 18.81 19.57 18.81 19.84 20.21 19.84 20.21 19.94 18.82 19.94 18.82 20.56 20.71 20.56 20.71 20.29 19.23 20.29 19.23 20.18"/>
        <path class="cls-1" d="m22.24,19.6c-.58,0-.93.18-.93.49s.35.49.93.49.92-.18.92-.49-.35-.49-.92-.49Zm0,.67c-.35,0-.51-.05-.51-.17,0-.12.16-.18.51-.18s.51.06.51.18-.17.17-.51.17Z"/>
        <polygon class="cls-1" points="22.46 18.96 23.19 18.96 23.19 18.64 21.75 18.64 21.75 18.37 23.17 18.37 23.17 18.05 21.33 18.05 21.33 18.96 22.05 18.96 22.05 19.16 21.04 19.16 21.04 19.49 23.46 19.49 23.46 19.16 22.46 19.16 22.46 18.96"/>
        <polygon class="cls-1" points="25.69 17.93 25.27 17.93 25.27 20.58 25.69 20.58 25.69 19.27 26.06 19.27 26.06 18.92 25.69 18.92 25.69 17.93"/>
        <path class="cls-1" d="m24.59,18.62v-.1h.51v-.34h-1.47v.34h.54v.1c0,.43-.19.92-.65,1.13l.24.33c.3-.14.51-.42.63-.75.12.3.31.56.6.69l.23-.33c-.45-.2-.64-.67-.63-1.07Z"/>
        <path class="cls-1" d="m26.87,19.87h.37v-.5c.2-.02.41-.04.61-.07l-.02-.29c-.56.07-1.2.07-1.69.08l.05.33c.19,0,.41,0,.64-.01v.33h-.36v.79h2v-.33h-1.58v-.33Z"/>
        <polygon class="cls-1" points="27.49 19.74 27.98 19.74 27.98 19.93 28.4 19.93 28.4 17.94 27.98 17.94 27.98 19.46 27.49 19.46 27.49 19.74"/>
        <path class="cls-1" d="m26.99,18.97c.39,0,.66-.18.66-.47s-.28-.48-.66-.48-.67.2-.67.48.27.47.67.47Zm0-.64c.16,0,.27.06.27.18,0,.12-.12.17-.27.17-.16,0-.27-.06-.27-.17s.11-.18.27-.18Z"/>
        <path class="cls-1" d="m30.55,19.69h-1v-.22h-.41v1.08h1.83v-1.08h-.41v.22Zm0,.53h-1v-.2h1v.2Z"/>
        <polygon class="cls-1" points="30.57 17.94 30.57 18.47 30.39 18.47 30.39 17.98 30.01 17.98 30.01 19.35 30.39 19.35 30.39 18.8 30.57 18.8 30.57 19.37 30.97 19.37 30.97 17.94 30.57 17.94"/>
        <path class="cls-1" d="m29.83,18.1h-1.06v1.17h1.06v-1.17Zm-.39.84h-.28v-.52h.28v.52Z"/>
      </g>
      <rect class="cls-1" y="14.94" width="10.32" height="1.29"/>
      <rect class="cls-1" x="10.32" y="13.65" width="10.32" height="1.29"/>
      <rect class="cls-1" x="20.64" y="12.36" width="10.32" height="1.29"/>
      <path class="cls-1" d="m5.39,4.93H1.72v4.67c1.91,0,3.07-.05,4.38-.29l.16,1.41c-1.46.3-2.85.34-5.3.34h-.96V3.53h5.39v1.4Zm3.23,8.73h-1.75V2.58h1.75v11.07Z"/>
      <path class="cls-1" d="m16.04,3.64h-3.67v4.67c1.91,0,3.07-.05,4.38-.29l.16,1.41c-1.46.3-2.85.34-5.3.34h-.96V2.24h5.39v1.4Zm3.23,8.73h-1.75V1.29h1.75v11.07Z"/>
      <path class="cls-1" d="m26.25,2.41h-3.45v4.59c1.49-.01,2.77-.1,4.16-.34l.18,1.44c-1.7.29-3.23.32-5.13.32h-.95V1.01h5.19v1.4Zm3.15,1.61h1.56v1.41h-1.56v5.64h-1.73V0h1.73v4.02Z"/>
    </g>
  </g>
</svg>