<?xml version="1.0" encoding="UTF-8"?>
<svg id="_레이어_2" data-name="레이어 2" xmlns="http://www.w3.org/2000/svg" viewBox="0 0 160 90">
  <defs>
    <style>
      .cls-1 {
        fill: none;
      }

      .cls-1, .cls-2 {
        stroke-width: 0px;
      }
    </style>
  </defs>
  <g id="_레이어_1-2" data-name="레이어 1">
    <g>
      <rect class="cls-2" x="12.25" y="74.87" width="45.17" height="5.65"/>
      <rect class="cls-2" x="57.42" y="69.22" width="45.17" height="5.65"/>
      <rect class="cls-2" x="102.58" y="63.58" width="45.17" height="5.65"/>
      <path class="cls-2" d="m35.84,31.04h-16.06v20.43c8.37-.03,13.46-.24,19.17-1.26l.68,6.16c-6.37,1.32-12.48,1.47-23.17,1.47h-4.21V24.94h23.59v6.11Zm14.11,38.18h-7.64V20.78h7.64v48.45Z"/>
      <path class="cls-2" d="m82.45,25.4h-16.06v20.43c8.37-.03,13.46-.24,19.17-1.26l.68,6.16c-6.37,1.32-12.48,1.47-23.17,1.47h-4.21V19.29h23.59v6.11Zm14.11,38.18h-7.64V15.13h7.64v48.45Z"/>
      <path class="cls-2" d="m127.11,20.02h-15.11v20.06c6.5-.05,12.11-.45,18.22-1.47l.79,6.32c-7.43,1.26-14.11,1.42-22.43,1.42h-4.16V13.91h22.7v6.11Zm13.8,7.06h6.85v6.16h-6.85v24.7h-7.58V9.48h7.58v17.59Z"/>
    </g>
    <rect class="cls-1" width="160" height="90"/>
  </g>
</svg>