<?xml version="1.0" encoding="UTF-8"?>
<svg id="_레이어_2" data-name="레이어 2" xmlns="http://www.w3.org/2000/svg" viewBox="0 0 90 12.58">
  <defs>
    <style>
      .cls-1 {
        stroke-width: 0px;
      }
    </style>
  </defs>
  <g id="_레이어_1-2" data-name="레이어 1">
    <rect class="cls-1" y="11.58" width="8" height="1"/>
    <rect class="cls-1" x="8" y="10.58" width="8" height="1"/>
    <rect class="cls-1" x="16" y="9.58" width="74" height="1"/>
    <path class="cls-1" d="m4.18,3.82H1.33v3.62c1.48,0,2.38-.04,3.4-.22l.12,1.09c-1.13.23-2.21.26-4.1.26h-.75V2.74h4.18v1.08Zm2.5,6.76h-1.35V2h1.35v8.58Z"/>
    <path class="cls-1" d="m12.43,2.82h-2.84v3.62c1.48,0,2.38-.04,3.4-.22l.12,1.09c-1.13.23-2.21.26-4.1.26h-.75V1.74h4.18v1.08Zm2.5,6.76h-1.35V1h1.35v8.58Z"/>
    <path class="cls-1" d="m20.34,1.87h-2.68v3.55c1.15,0,2.15-.08,3.23-.26l.14,1.12c-1.32.22-2.5.25-3.97.25h-.74V.78h4.02v1.08Zm2.44,1.25h1.21v1.09h-1.21v4.37h-1.34V0h1.34v3.12Z"/>
    <g>
      <path class="cls-1" d="m31.11,5.11h-2.1v.43c.96.06,1.51.37,1.51.89,0,.57-.68.89-1.83.89s-1.85-.32-1.85-.89c0-.52.56-.83,1.52-.89v-.43h-2.09v-.51h4.83v.51Zm-2.1-2.59h1.62v.52h-1.57c.09.43.72.78,1.8.86l-.2.49c-.95-.07-1.65-.37-1.98-.83-.33.46-1.04.75-1.98.83l-.2-.49c1.08-.08,1.71-.43,1.8-.86h-1.56v-.52h1.61v-.48h.64v.48Zm-1.51,3.91c0,.27.4.4,1.18.4s1.18-.13,1.18-.4c0-.28-.42-.41-1.18-.41s-1.19.13-1.18.41Z"/>
      <path class="cls-1" d="m34.66,4.54l-.3.5c-.61-.17-1.05-.52-1.29-.98-.23.52-.67.93-1.3,1.12l-.3-.5c.83-.25,1.27-.87,1.27-1.51v-.03h-1.11v-.52h1.11v-.61h.66v.61h1.1v.52h-1.11v.03c0,.58.45,1.15,1.28,1.38Zm1.27,1.79c0,.63-.69,1-1.81,1s-1.8-.36-1.8-1c0-.63.69-.98,1.8-.98s1.81.36,1.81.98Zm-2.96,0c0,.32.42.49,1.15.49s1.16-.18,1.16-.49-.41-.48-1.16-.49c-.74,0-1.15.17-1.15.49Zm2.95-1.09h-.65v-1.22h-.93v-.53h.93v-1.45h.65v3.21Z"/>
      <path class="cls-1" d="m37.54,4.15c.68,0,1.39-.07,2.17-.22l.08.53c-.88.18-1.69.22-2.46.22h-.44v-2.4h.66v1.86Zm3.29,3.1h-3.43v-1.98h3.43v1.98Zm-2.79-.52h2.15v-.96h-2.15v.96Zm2.79-3.56h.74v.54h-.74v1.29h-.65v-2.98h.65v1.15Z"/>
      <path class="cls-1" d="m46.14,4.95h-1.57v1.21h2.11v.53h-4.84v-.53h2.09v-1.21h-1.5v-2.53h3.67v.52h-3.02v1.49h3.06v.52Z"/>
      <path class="cls-1" d="m51.64,4.54l-.3.5c-.61-.17-1.05-.52-1.29-.98-.23.52-.67.93-1.3,1.12l-.3-.5c.83-.25,1.27-.87,1.27-1.51v-.03h-1.11v-.52h1.11v-.61h.66v.61h1.1v.52h-1.11v.03c0,.58.45,1.15,1.28,1.38Zm1.27,1.79c0,.63-.69,1-1.81,1s-1.8-.36-1.8-1c0-.63.69-.98,1.8-.98s1.81.36,1.81.98Zm-2.96,0c0,.32.42.49,1.15.49s1.16-.18,1.16-.49-.41-.48-1.16-.49c-.74,0-1.15.17-1.15.49Zm2.95-1.09h-.65v-1.22h-.93v-.53h.93v-1.45h.65v3.21Z"/>
      <path class="cls-1" d="m58.48,6.67h-4.84v-.53h2.07v-1.22h.64v1.22h2.12v.53Zm-.19-2.16l-.28.54c-.9-.17-1.63-.68-1.98-1.38-.35.69-1.08,1.21-1.97,1.38l-.28-.54c1.11-.18,1.9-.97,1.9-1.77v-.39h.69v.39c0,.8.8,1.59,1.92,1.77Z"/>
      <path class="cls-1" d="m59.77,4.68c.67,0,1.31-.05,2.02-.18l.06.53c-.81.15-1.53.18-2.31.19h-.42v-2.83h.64v2.29Zm3.62,2.54h-3.62v-1.63h.66v1.1h2.96v.53Zm-.13-1.28h-.65v-1.76h-1.38v-.52h1.38v-.48h-1.38v-.52h1.38v-.63h.65v3.9Z"/>
      <path class="cls-1" d="m65.3,4.59v-.26c-.59-.06-.96-.3-.96-.69,0-.43.5-.68,1.28-.68s1.28.25,1.28.68c0,.39-.36.63-.94.69v.24c.45-.02.91-.06,1.33-.11l.05.41c-1.13.19-2.37.2-3.3.2l-.07-.46c.4,0,.86,0,1.34-.02Zm1.84-1.76h-3.04v-.45h1.2v-.4h.65v.4h1.19v.45Zm1.07,3.67h-2.88v.34h3.06v.44h-3.71v-1.18h2.88v-.3h-2.89v-.44h3.54v1.14Zm-3.24-2.86c0,.19.24.29.65.29s.66-.11.66-.29c0-.18-.25-.26-.66-.27-.41,0-.66.09-.65.27Zm3.24-.32h.71v.54h-.71v1.28h-.65v-3.12h.65v1.29Z"/>
      <path class="cls-1" d="m74.03,5.09h-4.83v-.52h2.1v-.5h-1.51v-1.79h3.66v.51h-3.01v.77h3.04v.52h-1.54v.5h2.1v.52Zm-.59,1.27c0,.62-.69.97-1.83.97s-1.85-.35-1.85-.97.69-.97,1.85-.97,1.83.35,1.83.97Zm-3.02,0c0,.3.41.46,1.18.46s1.18-.16,1.18-.46c0-.3-.43-.47-1.18-.47s-1.19.16-1.18.47Z"/>
      <path class="cls-1" d="m77.6,5.67l-.36.52c-.6-.28-1.04-.85-1.28-1.51-.24.73-.7,1.35-1.31,1.64l-.38-.51c.84-.4,1.35-1.39,1.36-2.27v-.45h-1.15v-.54h2.91v.54h-1.11v.45c0,.82.49,1.75,1.32,2.14Zm.93-1.58h.81v.54h-.81v2.69h-.65V2.03h.65v2.06Z"/>
      <path class="cls-1" d="m82.96,4.25l.04.47c-.44.07-.89.12-1.34.15v1.02h-.65v-.98c-.5.02-.97.02-1.38.02l-.08-.52c.98,0,2.29-.02,3.42-.16Zm-.37-1.09c0,.57-.54.93-1.32.93s-1.32-.36-1.32-.93.54-.94,1.32-.94,1.31.38,1.32.94Zm1.54,4.05h-3.88v-1.56h.65v1.04h3.23v.53Zm-3.57-4.05c0,.29.29.46.71.46s.69-.17.7-.46c0-.29-.29-.46-.7-.46s-.71.17-.71.46Zm3.45,2.88h-.66v-.46h-1.04v-.46h1.04v-3.09h.66v4.01Z"/>
      <path class="cls-1" d="m87.04,4.67h-2.09v-2.29h2.09v2.29Zm-1.47-.52h.87v-1.26h-.87v1.26Zm.78,1.51h2.29v-.53h.64v2.13h-3.57v-2.13h.64v.53Zm2.29,1.07v-.55h-2.29v.55h2.29Zm.64-1.82h-.62v-1.2h-.53v1.17h-.61v-2.74h.61v1.04h.53v-1.14h.62v2.88Z"/>
    </g>
  </g>
</svg>